<mxfile host="65bd71144e">
    <diagram id="gs0Wf93gt6CxfvL2_yyo" name="arquitectura">
        <mxGraphModel dx="1866" dy="464" grid="1" gridSize="10" guides="1" tooltips="1" connect="1" arrows="1" fold="1" page="1" pageScale="1" pageWidth="827" pageHeight="1169" math="0" shadow="0">
            <root>
                <mxCell id="0"/>
                <mxCell id="1" parent="0"/>
                <mxCell id="40" value="" style="rounded=0;whiteSpace=wrap;html=1;fontSize=12;movable=1;resizable=1;rotatable=1;deletable=1;editable=1;connectable=1;" parent="1" vertex="1">
                    <mxGeometry x="753.26" y="301" width="136.74" height="269" as="geometry"/>
                </mxCell>
                <mxCell id="7" value="" style="shape=image;verticalLabelPosition=bottom;labelBackgroundColor=default;verticalAlign=top;aspect=fixed;imageAspect=0;image=https://raw.githubusercontent.com/nodemailer/nodemailer/master/assets/nm_logo_200x136.png;" parent="1" vertex="1">
                    <mxGeometry x="771.05" y="470.5" width="102.21" height="69.5" as="geometry"/>
                </mxCell>
                <mxCell id="8" value="" style="shape=image;verticalLabelPosition=bottom;labelBackgroundColor=default;verticalAlign=top;aspect=fixed;imageAspect=0;image=https://simplehomecinema.com/wp-content/uploads/2022/01/zoom-logo-png-photo.png;" parent="1" vertex="1">
                    <mxGeometry x="785.31" y="400.5" width="73.69" height="70" as="geometry"/>
                </mxCell>
                <mxCell id="9" value="Desktop and Mobile" style="strokeColor=#dddddd;shadow=1;strokeWidth=1;rounded=1;absoluteArcSize=1;arcSize=2;labelPosition=center;verticalLabelPosition=middle;align=center;verticalAlign=bottom;spacingLeft=0;fontColor=#999999;fontSize=12;whiteSpace=wrap;spacingBottom=2;" parent="1" vertex="1">
                    <mxGeometry x="-400" y="400" width="90" height="90" as="geometry"/>
                </mxCell>
                <mxCell id="10" value="" style="sketch=0;dashed=0;connectable=0;html=1;fillColor=#757575;strokeColor=none;shape=mxgraph.gcp2.desktop_and_mobile;part=1;" parent="9" vertex="1">
                    <mxGeometry x="0.5" width="50" height="33" relative="1" as="geometry">
                        <mxPoint x="-25" y="18.5" as="offset"/>
                    </mxGeometry>
                </mxCell>
                <mxCell id="11" value="Users" style="strokeColor=#dddddd;shadow=1;strokeWidth=1;rounded=1;absoluteArcSize=1;arcSize=2;labelPosition=center;verticalLabelPosition=middle;align=center;verticalAlign=bottom;spacingLeft=0;fontColor=#999999;fontSize=12;whiteSpace=wrap;spacingBottom=2;" parent="1" vertex="1">
                    <mxGeometry x="-448" y="319" width="70" height="85" as="geometry"/>
                </mxCell>
                <mxCell id="12" value="" style="sketch=0;dashed=0;connectable=0;html=1;fillColor=#757575;strokeColor=none;shape=mxgraph.gcp2.users;part=1;" parent="11" vertex="1">
                    <mxGeometry x="0.5" width="50" height="31.5" relative="1" as="geometry">
                        <mxPoint x="-25" y="19.25" as="offset"/>
                    </mxGeometry>
                </mxCell>
                <mxCell id="13" value="MySQL DB &#10;instance" style="sketch=0;outlineConnect=0;fontColor=#232F3E;gradientColor=none;strokeColor=#232F3E;fillColor=#ffffff;dashed=0;verticalLabelPosition=bottom;verticalAlign=top;align=center;html=1;fontSize=12;fontStyle=0;aspect=fixed;shape=mxgraph.aws4.resourceIcon;resIcon=mxgraph.aws4.mysql_db_instance;" parent="1" vertex="1">
                    <mxGeometry x="767.66" y="640" width="109" height="109" as="geometry"/>
                </mxCell>
                <mxCell id="14" value="Vista Desktop" style="swimlane;whiteSpace=wrap;html=1;" parent="1" vertex="1">
                    <mxGeometry x="120" y="301" width="230" height="210" as="geometry">
                        <mxRectangle x="120" y="280" width="120" height="30" as="alternateBounds"/>
                    </mxGeometry>
                </mxCell>
                <mxCell id="15" value="View" style="rounded=0;whiteSpace=wrap;html=1;" parent="14" vertex="1">
                    <mxGeometry x="10" y="60" width="70" height="30" as="geometry"/>
                </mxCell>
                <mxCell id="17" value="Controller" style="rounded=0;whiteSpace=wrap;html=1;" parent="14" vertex="1">
                    <mxGeometry x="140" y="60" width="70" height="30" as="geometry"/>
                </mxCell>
                <mxCell id="20" value="" style="endArrow=classic;html=1;exitX=1;exitY=0.25;exitDx=0;exitDy=0;entryX=0;entryY=0.25;entryDx=0;entryDy=0;" parent="14" source="15" target="17" edge="1">
                    <mxGeometry width="50" height="50" relative="1" as="geometry">
                        <mxPoint x="80" y="110" as="sourcePoint"/>
                        <mxPoint x="130" y="60" as="targetPoint"/>
                    </mxGeometry>
                </mxCell>
                <mxCell id="21" value="" style="endArrow=classic;html=1;entryX=1;entryY=0.75;entryDx=0;entryDy=0;exitX=0;exitY=0.75;exitDx=0;exitDy=0;" parent="14" source="17" target="15" edge="1">
                    <mxGeometry width="50" height="50" relative="1" as="geometry">
                        <mxPoint x="100" y="150" as="sourcePoint"/>
                        <mxPoint x="150" y="100" as="targetPoint"/>
                    </mxGeometry>
                </mxCell>
                <mxCell id="25" value="&lt;span style=&quot;font-size: 12px;&quot;&gt;FRONTEND&lt;/span&gt;" style="text;html=1;align=center;verticalAlign=middle;resizable=0;points=[];autosize=1;strokeColor=none;fillColor=none;fontSize=72;" parent="1" vertex="1">
                    <mxGeometry x="190" y="181" width="90" height="100" as="geometry"/>
                </mxCell>
                <mxCell id="26" value="BACKEND" style="text;html=1;align=center;verticalAlign=middle;resizable=0;points=[];autosize=1;strokeColor=none;fillColor=none;fontSize=12;" parent="1" vertex="1">
                    <mxGeometry x="500" y="231.5" width="80" height="30" as="geometry"/>
                </mxCell>
                <mxCell id="37" style="edgeStyle=none;html=1;fontSize=12;" parent="1" source="27" target="35" edge="1">
                    <mxGeometry relative="1" as="geometry"/>
                </mxCell>
                <mxCell id="27" value="" style="outlineConnect=0;dashed=0;verticalLabelPosition=bottom;verticalAlign=top;align=center;html=1;shape=mxgraph.aws3.internet_3;fillColor=#D2D3D3;gradientColor=none;fontSize=12;" parent="1" vertex="1">
                    <mxGeometry x="-240" y="334.5" width="79.5" height="54" as="geometry"/>
                </mxCell>
                <mxCell id="28" value="" style="shape=curlyBracket;whiteSpace=wrap;html=1;rounded=1;labelPosition=left;verticalLabelPosition=middle;align=right;verticalAlign=middle;fontSize=12;rotation=90;" parent="1" vertex="1">
                    <mxGeometry x="225" y="150" width="20" height="260" as="geometry"/>
                </mxCell>
                <mxCell id="30" value="" style="shape=curlyBracket;whiteSpace=wrap;html=1;rounded=1;labelPosition=left;verticalLabelPosition=middle;align=right;verticalAlign=middle;fontSize=12;rotation=90;" parent="1" vertex="1">
                    <mxGeometry x="530" y="131" width="20" height="299" as="geometry"/>
                </mxCell>
                <mxCell id="33" value="" style="endArrow=classic;html=1;fontSize=12;exitX=1.037;exitY=0.619;exitDx=0;exitDy=0;exitPerimeter=0;" parent="1" edge="1">
                    <mxGeometry width="50" height="50" relative="1" as="geometry">
                        <mxPoint x="-375.40999999999997" y="359.615" as="sourcePoint"/>
                        <mxPoint x="-240" y="360" as="targetPoint"/>
                    </mxGeometry>
                </mxCell>
                <mxCell id="36" value="HTTPS" style="edgeLabel;html=1;align=center;verticalAlign=middle;resizable=0;points=[];fontSize=12;" parent="33" vertex="1" connectable="0">
                    <mxGeometry x="-0.344" y="2" relative="1" as="geometry">
                        <mxPoint as="offset"/>
                    </mxGeometry>
                </mxCell>
                <mxCell id="34" value="INTERNET" style="text;html=1;align=center;verticalAlign=middle;resizable=0;points=[];autosize=1;strokeColor=none;fillColor=none;fontSize=12;" parent="1" vertex="1">
                    <mxGeometry x="-240" y="389" width="80" height="30" as="geometry"/>
                </mxCell>
                <mxCell id="39" style="edgeStyle=none;html=1;fontSize=12;" parent="1" source="35" edge="1">
                    <mxGeometry relative="1" as="geometry">
                        <mxPoint x="110" y="361.5" as="targetPoint"/>
                    </mxGeometry>
                </mxCell>
                <mxCell id="35" value="" style="sketch=0;outlineConnect=0;fontColor=#232F3E;gradientColor=none;fillColor=#232F3D;strokeColor=none;dashed=0;verticalLabelPosition=bottom;verticalAlign=top;align=center;html=1;fontSize=12;fontStyle=0;aspect=fixed;pointerEvents=1;shape=mxgraph.aws4.traditional_server;" parent="1" vertex="1">
                    <mxGeometry x="-60" y="322.5" width="45" height="78" as="geometry"/>
                </mxCell>
                <mxCell id="38" value="SERVER" style="text;html=1;align=center;verticalAlign=middle;resizable=0;points=[];autosize=1;strokeColor=none;fillColor=none;fontSize=12;" parent="1" vertex="1">
                    <mxGeometry x="-72.5" y="400" width="70" height="30" as="geometry"/>
                </mxCell>
                <mxCell id="4" value="" style="shape=image;verticalLabelPosition=bottom;labelBackgroundColor=default;verticalAlign=top;aspect=fixed;imageAspect=0;image=https://appexchange.salesforce.com/image_host/2b53bb52-3256-4cdb-860b-cbe896427aeb.png;" parent="1" vertex="1">
                    <mxGeometry x="777.6600000000001" y="300" width="89" height="89" as="geometry"/>
                </mxCell>
                <mxCell id="42" value="API" style="text;strokeColor=none;align=center;fillColor=none;html=1;verticalAlign=middle;whiteSpace=wrap;rounded=0;fontSize=12;" parent="1" vertex="1">
                    <mxGeometry x="791.63" y="570" width="60" height="30" as="geometry"/>
                </mxCell>
                <mxCell id="44" value="" style="swimlane;whiteSpace=wrap;html=1;" parent="1" vertex="1">
                    <mxGeometry x="414" y="301" width="106" height="210" as="geometry">
                        <mxRectangle x="120" y="280" width="120" height="30" as="alternateBounds"/>
                    </mxGeometry>
                </mxCell>
                <mxCell id="53" value="" style="swimlane;whiteSpace=wrap;html=1;" parent="1" vertex="1">
                    <mxGeometry x="550" y="301" width="106" height="210" as="geometry">
                        <mxRectangle x="120" y="280" width="120" height="30" as="alternateBounds"/>
                    </mxGeometry>
                </mxCell>
            </root>
        </mxGraphModel>
    </diagram>
    <diagram id="6bZKeTq0TpX-b6n60RwH" name="arquitectura">
        <mxGraphModel dx="2212" dy="619" grid="1" gridSize="10" guides="1" tooltips="1" connect="1" arrows="1" fold="1" page="1" pageScale="1" pageWidth="827" pageHeight="1169" math="0" shadow="0">
            <root>
                <mxCell id="0"/>
                <mxCell id="1" parent="0"/>
                <mxCell id="v7GmwFYXPFqKM35oFXY--1" value="&lt;span style=&quot;font-size: 12px;&quot;&gt;FRONTEND&lt;/span&gt;" style="text;html=1;align=center;verticalAlign=middle;resizable=0;points=[];autosize=1;strokeColor=none;fillColor=none;fontSize=72;" vertex="1" parent="1">
                    <mxGeometry x="130" y="110.5" width="90" height="100" as="geometry"/>
                </mxCell>
                <mxCell id="v7GmwFYXPFqKM35oFXY--2" value="BACKEND" style="text;html=1;align=center;verticalAlign=middle;resizable=0;points=[];autosize=1;strokeColor=none;fillColor=none;fontSize=12;" vertex="1" parent="1">
                    <mxGeometry x="1120" y="80.5" width="80" height="30" as="geometry"/>
                </mxCell>
                <mxCell id="v7GmwFYXPFqKM35oFXY--3" value="" style="shape=curlyBracket;whiteSpace=wrap;html=1;rounded=1;labelPosition=left;verticalLabelPosition=middle;align=right;verticalAlign=middle;fontSize=12;rotation=90;" vertex="1" parent="1">
                    <mxGeometry x="-149.25" y="79.5" width="20" height="260" as="geometry"/>
                </mxCell>
                <mxCell id="v7GmwFYXPFqKM35oFXY--4" value="" style="shape=curlyBracket;whiteSpace=wrap;html=1;rounded=1;labelPosition=left;verticalLabelPosition=middle;align=right;verticalAlign=middle;fontSize=12;rotation=90;" vertex="1" parent="1">
                    <mxGeometry x="1120" y="-470" width="20" height="1359" as="geometry"/>
                </mxCell>
                <mxCell id="oDV3iFbCHv-jAnNd1CXN-1" value="Vista Web" style="swimlane;whiteSpace=wrap;html=1;" vertex="1" parent="1">
                    <mxGeometry x="-254.25" y="230" width="314.25" height="480" as="geometry">
                        <mxRectangle x="120" y="280" width="120" height="30" as="alternateBounds"/>
                    </mxGeometry>
                </mxCell>
                <mxCell id="yfg_CvKCfj8djh42tYuD-1" value="JS" style="rounded=0;whiteSpace=wrap;html=1;" vertex="1" parent="oDV3iFbCHv-jAnNd1CXN-1">
                    <mxGeometry x="20" y="50" width="70" height="30" as="geometry"/>
                </mxCell>
                <mxCell id="yfg_CvKCfj8djh42tYuD-2" value="VIEWS" style="rounded=0;whiteSpace=wrap;html=1;" vertex="1" parent="oDV3iFbCHv-jAnNd1CXN-1">
                    <mxGeometry x="130" y="50" width="70" height="30" as="geometry"/>
                </mxCell>
                <mxCell id="biGLxUPbmxU-HZz-2Ra1-14" value="" style="endArrow=classic;html=1;exitX=1;exitY=0.25;exitDx=0;exitDy=0;entryX=0;entryY=0.25;entryDx=0;entryDy=0;" edge="1" parent="oDV3iFbCHv-jAnNd1CXN-1" source="yfg_CvKCfj8djh42tYuD-1" target="yfg_CvKCfj8djh42tYuD-2">
                    <mxGeometry width="50" height="50" relative="1" as="geometry">
                        <mxPoint x="90" y="170" as="sourcePoint"/>
                        <mxPoint x="140" y="120" as="targetPoint"/>
                    </mxGeometry>
                </mxCell>
                <mxCell id="biGLxUPbmxU-HZz-2Ra1-15" value="" style="endArrow=classic;html=1;entryX=1;entryY=0.75;entryDx=0;entryDy=0;exitX=0;exitY=0.75;exitDx=0;exitDy=0;" edge="1" parent="oDV3iFbCHv-jAnNd1CXN-1" source="yfg_CvKCfj8djh42tYuD-2" target="yfg_CvKCfj8djh42tYuD-1">
                    <mxGeometry width="50" height="50" relative="1" as="geometry">
                        <mxPoint x="140" y="220" as="sourcePoint"/>
                        <mxPoint x="190" y="170" as="targetPoint"/>
                    </mxGeometry>
                </mxCell>
                <mxCell id="X4Lkt7KPIypQwsBZhQ1o-32" style="edgeStyle=none;html=1;entryX=0.5;entryY=0;entryDx=0;entryDy=0;fontColor=#000000;" edge="1" parent="oDV3iFbCHv-jAnNd1CXN-1" source="biGLxUPbmxU-HZz-2Ra1-27" target="X4Lkt7KPIypQwsBZhQ1o-27">
                    <mxGeometry relative="1" as="geometry"/>
                </mxCell>
                <mxCell id="biGLxUPbmxU-HZz-2Ra1-27" value="&lt;font color=&quot;#4c9cd7&quot;&gt;Validación&lt;/font&gt;" style="sketch=0;aspect=fixed;html=1;points=[];align=center;image;fontSize=12;image=img/lib/mscae/Network_Security_Groups_Classic.svg;" vertex="1" parent="oDV3iFbCHv-jAnNd1CXN-1">
                    <mxGeometry x="254.25" y="150" width="37" height="50" as="geometry"/>
                </mxCell>
                <mxCell id="biGLxUPbmxU-HZz-2Ra1-41" style="edgeStyle=none;html=1;fontColor=#000000;" edge="1" parent="oDV3iFbCHv-jAnNd1CXN-1" source="biGLxUPbmxU-HZz-2Ra1-33" target="yfg_CvKCfj8djh42tYuD-2">
                    <mxGeometry relative="1" as="geometry"/>
                </mxCell>
                <mxCell id="biGLxUPbmxU-HZz-2Ra1-43" style="edgeStyle=none;html=1;entryX=0.022;entryY=0.498;entryDx=0;entryDy=0;entryPerimeter=0;fontColor=#000000;" edge="1" parent="oDV3iFbCHv-jAnNd1CXN-1" source="biGLxUPbmxU-HZz-2Ra1-33" target="biGLxUPbmxU-HZz-2Ra1-27">
                    <mxGeometry relative="1" as="geometry"/>
                </mxCell>
                <mxCell id="biGLxUPbmxU-HZz-2Ra1-33" value="&lt;i&gt;Escucha puerto 4000&lt;/i&gt;" style="outlineConnect=0;dashed=0;verticalLabelPosition=bottom;verticalAlign=top;align=center;html=1;shape=mxgraph.aws3.android;fillColor=#8CC64F;gradientColor=none;labelBackgroundColor=none;fontColor=#000000;" vertex="1" parent="oDV3iFbCHv-jAnNd1CXN-1">
                    <mxGeometry x="143.38" y="150" width="43.25" height="50" as="geometry"/>
                </mxCell>
                <mxCell id="biGLxUPbmxU-HZz-2Ra1-42" value="" style="endArrow=classic;html=1;fontColor=#000000;exitX=0.5;exitY=1;exitDx=0;exitDy=0;entryX=0.5;entryY=0;entryDx=0;entryDy=0;entryPerimeter=0;" edge="1" parent="oDV3iFbCHv-jAnNd1CXN-1" source="yfg_CvKCfj8djh42tYuD-2" target="biGLxUPbmxU-HZz-2Ra1-33">
                    <mxGeometry width="50" height="50" relative="1" as="geometry">
                        <mxPoint x="234.25" y="190" as="sourcePoint"/>
                        <mxPoint x="284.25" y="140" as="targetPoint"/>
                    </mxGeometry>
                </mxCell>
                <mxCell id="X4Lkt7KPIypQwsBZhQ1o-27" value="cloudinary" style="swimlane;fontStyle=0;childLayout=stackLayout;horizontal=1;startSize=30;horizontalStack=0;resizeParent=1;resizeParentMax=0;resizeLast=0;collapsible=1;marginBottom=0;whiteSpace=wrap;html=1;labelBackgroundColor=none;fontColor=#000000;fillColor=#FFFFFF;" vertex="1" parent="oDV3iFbCHv-jAnNd1CXN-1">
                    <mxGeometry x="90" y="280" width="140" height="90" as="geometry"/>
                </mxCell>
                <mxCell id="X4Lkt7KPIypQwsBZhQ1o-28" value="cloudName" style="text;strokeColor=none;fillColor=none;align=left;verticalAlign=middle;spacingLeft=4;spacingRight=4;overflow=hidden;points=[[0,0.5],[1,0.5]];portConstraint=eastwest;rotatable=0;whiteSpace=wrap;html=1;labelBackgroundColor=none;fontColor=#000000;" vertex="1" parent="X4Lkt7KPIypQwsBZhQ1o-27">
                    <mxGeometry y="30" width="140" height="30" as="geometry"/>
                </mxCell>
                <mxCell id="X4Lkt7KPIypQwsBZhQ1o-29" value="uploadPresent" style="text;strokeColor=none;fillColor=none;align=left;verticalAlign=middle;spacingLeft=4;spacingRight=4;overflow=hidden;points=[[0,0.5],[1,0.5]];portConstraint=eastwest;rotatable=0;whiteSpace=wrap;html=1;labelBackgroundColor=none;fontColor=#000000;" vertex="1" parent="X4Lkt7KPIypQwsBZhQ1o-27">
                    <mxGeometry y="60" width="140" height="30" as="geometry"/>
                </mxCell>
                <mxCell id="oDV3iFbCHv-jAnNd1CXN-2" value="" style="swimlane;whiteSpace=wrap;html=1;" vertex="1" parent="1">
                    <mxGeometry x="450" y="230" width="840" height="450" as="geometry">
                        <mxRectangle x="120" y="280" width="120" height="30" as="alternateBounds"/>
                    </mxGeometry>
                </mxCell>
                <mxCell id="gZ7wiHZtPZ2oE74fwfMA-15" style="edgeStyle=none;html=1;entryX=0.009;entryY=-0.01;entryDx=0;entryDy=0;entryPerimeter=0;fontColor=#000000;" edge="1" parent="oDV3iFbCHv-jAnNd1CXN-2" source="biGLxUPbmxU-HZz-2Ra1-44" target="gZ7wiHZtPZ2oE74fwfMA-6">
                    <mxGeometry relative="1" as="geometry"/>
                </mxCell>
                <mxCell id="X4Lkt7KPIypQwsBZhQ1o-38" style="edgeStyle=none;html=1;entryX=0.5;entryY=0;entryDx=0;entryDy=0;entryPerimeter=0;fontColor=#000000;" edge="1" parent="oDV3iFbCHv-jAnNd1CXN-2" source="biGLxUPbmxU-HZz-2Ra1-44" target="gZ7wiHZtPZ2oE74fwfMA-9">
                    <mxGeometry relative="1" as="geometry"/>
                </mxCell>
                <mxCell id="biGLxUPbmxU-HZz-2Ra1-44" value="usuario" style="swimlane;fontStyle=0;childLayout=stackLayout;horizontal=1;startSize=30;horizontalStack=0;resizeParent=1;resizeParentMax=0;resizeLast=0;collapsible=1;marginBottom=0;whiteSpace=wrap;html=1;labelBackgroundColor=none;fontColor=#000000;fillColor=#FFFFFF;" vertex="1" parent="oDV3iFbCHv-jAnNd1CXN-2">
                    <mxGeometry x="40" y="150" width="140" height="150" as="geometry"/>
                </mxCell>
                <mxCell id="biGLxUPbmxU-HZz-2Ra1-45" value="id&lt;span style=&quot;white-space: pre;&quot;&gt;&#9;&lt;/span&gt;" style="text;strokeColor=none;fillColor=none;align=left;verticalAlign=middle;spacingLeft=4;spacingRight=4;overflow=hidden;points=[[0,0.5],[1,0.5]];portConstraint=eastwest;rotatable=0;whiteSpace=wrap;html=1;labelBackgroundColor=none;fontColor=#000000;" vertex="1" parent="biGLxUPbmxU-HZz-2Ra1-44">
                    <mxGeometry y="30" width="140" height="30" as="geometry"/>
                </mxCell>
                <mxCell id="biGLxUPbmxU-HZz-2Ra1-46" value="correo" style="text;strokeColor=none;fillColor=none;align=left;verticalAlign=middle;spacingLeft=4;spacingRight=4;overflow=hidden;points=[[0,0.5],[1,0.5]];portConstraint=eastwest;rotatable=0;whiteSpace=wrap;html=1;labelBackgroundColor=none;fontColor=#000000;" vertex="1" parent="biGLxUPbmxU-HZz-2Ra1-44">
                    <mxGeometry y="60" width="140" height="30" as="geometry"/>
                </mxCell>
                <mxCell id="biGLxUPbmxU-HZz-2Ra1-47" value="contraseña" style="text;strokeColor=none;fillColor=none;align=left;verticalAlign=middle;spacingLeft=4;spacingRight=4;overflow=hidden;points=[[0,0.5],[1,0.5]];portConstraint=eastwest;rotatable=0;whiteSpace=wrap;html=1;labelBackgroundColor=none;fontColor=#000000;" vertex="1" parent="biGLxUPbmxU-HZz-2Ra1-44">
                    <mxGeometry y="90" width="140" height="30" as="geometry"/>
                </mxCell>
                <mxCell id="gZ7wiHZtPZ2oE74fwfMA-14" value="rol" style="text;strokeColor=none;fillColor=none;align=left;verticalAlign=middle;spacingLeft=4;spacingRight=4;overflow=hidden;points=[[0,0.5],[1,0.5]];portConstraint=eastwest;rotatable=0;whiteSpace=wrap;html=1;labelBackgroundColor=none;fontColor=#000000;" vertex="1" parent="biGLxUPbmxU-HZz-2Ra1-44">
                    <mxGeometry y="120" width="140" height="30" as="geometry"/>
                </mxCell>
                <mxCell id="gZ7wiHZtPZ2oE74fwfMA-9" value="" style="outlineConnect=0;dashed=0;verticalLabelPosition=bottom;verticalAlign=top;align=center;html=1;shape=mxgraph.aws3.mysql_db_instance_2;fillColor=#2E73B8;gradientColor=none;labelBackgroundColor=none;strokeColor=#FFFFFF;fontColor=#000000;" vertex="1" parent="oDV3iFbCHv-jAnNd1CXN-2">
                    <mxGeometry x="80" y="340" width="60" height="63" as="geometry"/>
                </mxCell>
                <mxCell id="gZ7wiHZtPZ2oE74fwfMA-29" style="edgeStyle=none;html=1;exitX=1;exitY=0.25;exitDx=0;exitDy=0;entryX=0;entryY=0.25;entryDx=0;entryDy=0;fontColor=#000000;" edge="1" parent="oDV3iFbCHv-jAnNd1CXN-2" source="gZ7wiHZtPZ2oE74fwfMA-5" target="gZ7wiHZtPZ2oE74fwfMA-12">
                    <mxGeometry relative="1" as="geometry"/>
                </mxCell>
                <mxCell id="gZ7wiHZtPZ2oE74fwfMA-5" value="arraySesion" style="swimlane;fontStyle=0;childLayout=stackLayout;horizontal=1;startSize=30;horizontalStack=0;resizeParent=1;resizeParentMax=0;resizeLast=0;collapsible=1;marginBottom=0;whiteSpace=wrap;html=1;labelBackgroundColor=none;fontColor=#000000;fillColor=#FFFFFF;" vertex="1" parent="oDV3iFbCHv-jAnNd1CXN-2">
                    <mxGeometry x="310" y="195" width="140" height="60" as="geometry"/>
                </mxCell>
                <mxCell id="gZ7wiHZtPZ2oE74fwfMA-6" value="id_sesion" style="text;strokeColor=none;fillColor=none;align=left;verticalAlign=middle;spacingLeft=4;spacingRight=4;overflow=hidden;points=[[0,0.5],[1,0.5]];portConstraint=eastwest;rotatable=0;whiteSpace=wrap;html=1;labelBackgroundColor=none;fontColor=#000000;" vertex="1" parent="gZ7wiHZtPZ2oE74fwfMA-5">
                    <mxGeometry y="30" width="140" height="30" as="geometry"/>
                </mxCell>
                <mxCell id="gZ7wiHZtPZ2oE74fwfMA-12" value="OTP" style="swimlane;fontStyle=0;childLayout=stackLayout;horizontal=1;startSize=30;horizontalStack=0;resizeParent=1;resizeParentMax=0;resizeLast=0;collapsible=1;marginBottom=0;whiteSpace=wrap;html=1;labelBackgroundColor=none;fontColor=#000000;fillColor=#FFFFFF;" vertex="1" parent="oDV3iFbCHv-jAnNd1CXN-2">
                    <mxGeometry x="530" y="195" width="140" height="60" as="geometry"/>
                </mxCell>
                <mxCell id="gZ7wiHZtPZ2oE74fwfMA-13" value="codigo_OTP" style="text;strokeColor=none;fillColor=none;align=left;verticalAlign=middle;spacingLeft=4;spacingRight=4;overflow=hidden;points=[[0,0.5],[1,0.5]];portConstraint=eastwest;rotatable=0;whiteSpace=wrap;html=1;labelBackgroundColor=none;fontColor=#000000;" vertex="1" parent="gZ7wiHZtPZ2oE74fwfMA-12">
                    <mxGeometry y="30" width="140" height="30" as="geometry"/>
                </mxCell>
                <mxCell id="M5YrJVHxxcFTSkvNFR9a-7" value="MOBILE por client &amp;gt; peticion HTTP para acceder al cliente&amp;nbsp;&lt;br&gt;DESKTOP por port&amp;nbsp;&lt;br&gt;" style="text;html=1;align=center;verticalAlign=middle;resizable=0;points=[];autosize=1;strokeColor=none;fillColor=none;" vertex="1" parent="1">
                    <mxGeometry x="-350" y="100" width="340" height="40" as="geometry"/>
                </mxCell>
                <mxCell id="M5YrJVHxxcFTSkvNFR9a-8" value="" style="sketch=0;pointerEvents=1;shadow=0;dashed=0;html=1;strokeColor=none;fillColor=#505050;labelPosition=center;verticalLabelPosition=bottom;verticalAlign=top;outlineConnect=0;align=center;shape=mxgraph.office.devices.workstation_pc;" vertex="1" parent="1">
                    <mxGeometry x="-534.25" y="259.5" width="70" height="80" as="geometry"/>
                </mxCell>
                <mxCell id="M5YrJVHxxcFTSkvNFR9a-9" value="(NodeJS/EJS)" style="text;html=1;strokeColor=none;fillColor=none;align=center;verticalAlign=middle;whiteSpace=wrap;rounded=0;" vertex="1" parent="1">
                    <mxGeometry x="145" y="140" width="60" height="30" as="geometry"/>
                </mxCell>
                <mxCell id="M5YrJVHxxcFTSkvNFR9a-10" value="(NodeJS)" style="text;html=1;align=center;verticalAlign=middle;resizable=0;points=[];autosize=1;strokeColor=none;fillColor=none;" vertex="1" parent="1">
                    <mxGeometry x="1130" y="60" width="70" height="30" as="geometry"/>
                </mxCell>
                <mxCell id="M5YrJVHxxcFTSkvNFR9a-11" value="Vista Mobile" style="swimlane;whiteSpace=wrap;html=1;" vertex="1" parent="1">
                    <mxGeometry x="-185" y="1100" width="230" height="210" as="geometry">
                        <mxRectangle x="120" y="280" width="120" height="30" as="alternateBounds"/>
                    </mxGeometry>
                </mxCell>
                <mxCell id="M5YrJVHxxcFTSkvNFR9a-12" value="JS" style="rounded=0;whiteSpace=wrap;html=1;" vertex="1" parent="M5YrJVHxxcFTSkvNFR9a-11">
                    <mxGeometry x="20" y="50" width="70" height="30" as="geometry"/>
                </mxCell>
                <mxCell id="M5YrJVHxxcFTSkvNFR9a-13" value="VIEWS" style="rounded=0;whiteSpace=wrap;html=1;" vertex="1" parent="M5YrJVHxxcFTSkvNFR9a-11">
                    <mxGeometry x="130" y="50" width="70" height="30" as="geometry"/>
                </mxCell>
                <mxCell id="M5YrJVHxxcFTSkvNFR9a-14" value="(NodeJS/React Native)" style="text;html=1;strokeColor=none;fillColor=none;align=center;verticalAlign=middle;whiteSpace=wrap;rounded=0;" vertex="1" parent="1">
                    <mxGeometry x="-142.5" y="1070" width="145" height="30" as="geometry"/>
                </mxCell>
                <mxCell id="biGLxUPbmxU-HZz-2Ra1-1" value="" style="endArrow=classic;html=1;fontSize=12;exitX=1.037;exitY=0.619;exitDx=0;exitDy=0;exitPerimeter=0;entryX=0;entryY=0.5;entryDx=0;entryDy=0;entryPerimeter=0;" edge="1" parent="1" target="biGLxUPbmxU-HZz-2Ra1-33">
                    <mxGeometry width="50" height="50" relative="1" as="geometry">
                        <mxPoint x="-433.2499999999999" y="299.995" as="sourcePoint"/>
                        <mxPoint x="-297.84000000000003" y="300.38" as="targetPoint"/>
                        <Array as="points">
                            <mxPoint x="-370" y="300"/>
                            <mxPoint x="-370" y="405"/>
                        </Array>
                    </mxGeometry>
                </mxCell>
                <mxCell id="biGLxUPbmxU-HZz-2Ra1-3" value="HTTP" style="edgeLabel;html=1;align=center;verticalAlign=middle;resizable=0;points=[];" vertex="1" connectable="0" parent="biGLxUPbmxU-HZz-2Ra1-1">
                    <mxGeometry x="-0.4211" y="3" relative="1" as="geometry">
                        <mxPoint x="20" y="2" as="offset"/>
                    </mxGeometry>
                </mxCell>
                <mxCell id="biGLxUPbmxU-HZz-2Ra1-6" value="" style="outlineConnect=0;dashed=0;verticalLabelPosition=bottom;verticalAlign=top;align=center;html=1;shape=mxgraph.aws3.mobile_client;fillColor=#D2D3D3;gradientColor=none;" vertex="1" parent="1">
                    <mxGeometry x="-425" y="1173.5" width="40.5" height="63" as="geometry"/>
                </mxCell>
                <mxCell id="biGLxUPbmxU-HZz-2Ra1-9" value="" style="endArrow=classic;html=1;" edge="1" parent="1">
                    <mxGeometry width="50" height="50" relative="1" as="geometry">
                        <mxPoint x="-355" y="1190" as="sourcePoint"/>
                        <mxPoint x="-245" y="1190" as="targetPoint"/>
                    </mxGeometry>
                </mxCell>
                <mxCell id="biGLxUPbmxU-HZz-2Ra1-10" value="buscar iconsitos" style="text;html=1;align=center;verticalAlign=middle;resizable=0;points=[];autosize=1;strokeColor=none;fillColor=none;" vertex="1" parent="1">
                    <mxGeometry x="-470" y="1115" width="110" height="30" as="geometry"/>
                </mxCell>
                <mxCell id="biGLxUPbmxU-HZz-2Ra1-12" value="" style="outlineConnect=0;dashed=0;verticalLabelPosition=bottom;verticalAlign=top;align=center;html=1;shape=mxgraph.aws3.mobile_client;fillColor=#D2D3D3;gradientColor=none;" vertex="1" parent="1">
                    <mxGeometry x="-520" y="363.5" width="40" height="63" as="geometry"/>
                </mxCell>
                <mxCell id="X4Lkt7KPIypQwsBZhQ1o-35" style="edgeStyle=none;html=1;entryX=0;entryY=0.5;entryDx=0;entryDy=0;entryPerimeter=0;fontColor=#000000;" edge="1" parent="1" source="biGLxUPbmxU-HZz-2Ra1-24" target="gZ7wiHZtPZ2oE74fwfMA-9">
                    <mxGeometry relative="1" as="geometry"/>
                </mxCell>
                <mxCell id="biGLxUPbmxU-HZz-2Ra1-24" value="&lt;font color=&quot;#4c9cd7&quot;&gt;Validación&lt;/font&gt;" style="sketch=0;aspect=fixed;html=1;points=[];align=center;image;fontSize=12;image=img/lib/mscae/Network_Security_Groups_Classic.svg;" vertex="1" parent="1">
                    <mxGeometry x="168" y="530" width="37" height="50" as="geometry"/>
                </mxCell>
                <mxCell id="biGLxUPbmxU-HZz-2Ra1-48" style="edgeStyle=none;html=1;entryX=-0.029;entryY=0.169;entryDx=0;entryDy=0;entryPerimeter=0;fontColor=#000000;" edge="1" parent="1" source="biGLxUPbmxU-HZz-2Ra1-27" target="biGLxUPbmxU-HZz-2Ra1-44">
                    <mxGeometry relative="1" as="geometry"/>
                </mxCell>
                <mxCell id="gZ7wiHZtPZ2oE74fwfMA-32" value="nodemailer" style="swimlane;whiteSpace=wrap;html=1;" vertex="1" parent="1">
                    <mxGeometry x="1350" y="250" width="270" height="310" as="geometry">
                        <mxRectangle x="120" y="280" width="120" height="30" as="alternateBounds"/>
                    </mxGeometry>
                </mxCell>
                <mxCell id="4b266fUSEvJSC1VN_SVg-12" value="nodemailer" style="swimlane;fontStyle=0;childLayout=stackLayout;horizontal=1;startSize=30;horizontalStack=0;resizeParent=1;resizeParentMax=0;resizeLast=0;collapsible=1;marginBottom=0;whiteSpace=wrap;html=1;labelBackgroundColor=none;fontColor=#000000;fillColor=#FFFFFF;" vertex="1" parent="gZ7wiHZtPZ2oE74fwfMA-32">
                    <mxGeometry x="80" y="60" width="100" height="150" as="geometry"/>
                </mxCell>
                <mxCell id="4b266fUSEvJSC1VN_SVg-13" value="host" style="text;strokeColor=none;fillColor=none;align=left;verticalAlign=middle;spacingLeft=4;spacingRight=4;overflow=hidden;points=[[0,0.5],[1,0.5]];portConstraint=eastwest;rotatable=0;whiteSpace=wrap;html=1;labelBackgroundColor=none;fontColor=#000000;" vertex="1" parent="4b266fUSEvJSC1VN_SVg-12">
                    <mxGeometry y="30" width="100" height="30" as="geometry"/>
                </mxCell>
                <mxCell id="4b266fUSEvJSC1VN_SVg-16" value="port" style="text;strokeColor=none;fillColor=none;align=left;verticalAlign=middle;spacingLeft=4;spacingRight=4;overflow=hidden;points=[[0,0.5],[1,0.5]];portConstraint=eastwest;rotatable=0;whiteSpace=wrap;html=1;labelBackgroundColor=none;fontColor=#000000;" vertex="1" parent="4b266fUSEvJSC1VN_SVg-12">
                    <mxGeometry y="60" width="100" height="30" as="geometry"/>
                </mxCell>
                <mxCell id="4b266fUSEvJSC1VN_SVg-15" value="secure" style="text;strokeColor=none;fillColor=none;align=left;verticalAlign=middle;spacingLeft=4;spacingRight=4;overflow=hidden;points=[[0,0.5],[1,0.5]];portConstraint=eastwest;rotatable=0;whiteSpace=wrap;html=1;labelBackgroundColor=none;fontColor=#000000;" vertex="1" parent="4b266fUSEvJSC1VN_SVg-12">
                    <mxGeometry y="90" width="100" height="30" as="geometry"/>
                </mxCell>
                <mxCell id="4b266fUSEvJSC1VN_SVg-14" value="auth" style="text;strokeColor=none;fillColor=none;align=left;verticalAlign=middle;spacingLeft=4;spacingRight=4;overflow=hidden;points=[[0,0.5],[1,0.5]];portConstraint=eastwest;rotatable=0;whiteSpace=wrap;html=1;labelBackgroundColor=none;fontColor=#000000;" vertex="1" parent="4b266fUSEvJSC1VN_SVg-12">
                    <mxGeometry y="120" width="100" height="30" as="geometry"/>
                </mxCell>
                <mxCell id="4b266fUSEvJSC1VN_SVg-1" value="&lt;div style=&quot;text-align: start;&quot;&gt;&lt;span style=&quot;background-color: initial; font-size: 0px;&quot;&gt;&lt;font face=&quot;monospace&quot; color=&quot;rgba(0, 0, 0, 0)&quot;&gt;rrr&lt;/font&gt;&lt;/span&gt;&lt;/div&gt;" style="verticalLabelPosition=bottom;html=1;verticalAlign=top;align=center;strokeColor=none;fillColor=#00BEF2;shape=mxgraph.azure.script_file;pointerEvents=1;labelBackgroundColor=none;fontColor=#000000;" vertex="1" parent="1">
                    <mxGeometry x="800" y="686.5" width="47.5" height="50" as="geometry"/>
                </mxCell>
                <mxCell id="4b266fUSEvJSC1VN_SVg-3" value="&lt;b&gt;routerPost.js&lt;/b&gt;" style="text;html=1;align=center;verticalAlign=middle;resizable=0;points=[];autosize=1;strokeColor=none;fillColor=none;fontColor=#000000;" vertex="1" parent="1">
                    <mxGeometry x="775" y="736.5" width="100" height="30" as="geometry"/>
                </mxCell>
                <mxCell id="4b266fUSEvJSC1VN_SVg-10" value="&lt;div style=&quot;text-align: start;&quot;&gt;&lt;span style=&quot;background-color: initial; font-size: 0px;&quot;&gt;&lt;font face=&quot;monospace&quot; color=&quot;rgba(0, 0, 0, 0)&quot;&gt;rrr&lt;/font&gt;&lt;/span&gt;&lt;/div&gt;" style="verticalLabelPosition=bottom;html=1;verticalAlign=top;align=center;strokeColor=none;fillColor=#00BEF2;shape=mxgraph.azure.script_file;pointerEvents=1;labelBackgroundColor=none;fontColor=#000000;" vertex="1" parent="1">
                    <mxGeometry x="1460" y="560" width="47.5" height="50" as="geometry"/>
                </mxCell>
                <mxCell id="4b266fUSEvJSC1VN_SVg-11" value="&lt;b&gt;nodemailer.js&lt;/b&gt;" style="text;html=1;align=center;verticalAlign=middle;resizable=0;points=[];autosize=1;strokeColor=none;fillColor=none;fontColor=#000000;" vertex="1" parent="1">
                    <mxGeometry x="1435" y="610" width="100" height="30" as="geometry"/>
                </mxCell>
                <mxCell id="4b266fUSEvJSC1VN_SVg-19" style="edgeStyle=none;html=1;entryX=-0.003;entryY=0.115;entryDx=0;entryDy=0;entryPerimeter=0;fontColor=#000000;startArrow=none;" edge="1" parent="1" source="biGLxUPbmxU-HZz-2Ra1-18" target="4b266fUSEvJSC1VN_SVg-12">
                    <mxGeometry relative="1" as="geometry"/>
                </mxCell>
                <mxCell id="X4Lkt7KPIypQwsBZhQ1o-7" value="zoom" style="swimlane;whiteSpace=wrap;html=1;" vertex="1" parent="1">
                    <mxGeometry x="1350" y="660" width="270" height="310" as="geometry">
                        <mxRectangle x="120" y="280" width="120" height="30" as="alternateBounds"/>
                    </mxGeometry>
                </mxCell>
                <mxCell id="X4Lkt7KPIypQwsBZhQ1o-8" value="zoom" style="swimlane;fontStyle=0;childLayout=stackLayout;horizontal=1;startSize=30;horizontalStack=0;resizeParent=1;resizeParentMax=0;resizeLast=0;collapsible=1;marginBottom=0;whiteSpace=wrap;html=1;labelBackgroundColor=none;fontColor=#000000;fillColor=#FFFFFF;" vertex="1" parent="X4Lkt7KPIypQwsBZhQ1o-7">
                    <mxGeometry x="80" y="60" width="100" height="150" as="geometry"/>
                </mxCell>
                <mxCell id="X4Lkt7KPIypQwsBZhQ1o-9" value="cliendId" style="text;strokeColor=none;fillColor=none;align=left;verticalAlign=middle;spacingLeft=4;spacingRight=4;overflow=hidden;points=[[0,0.5],[1,0.5]];portConstraint=eastwest;rotatable=0;whiteSpace=wrap;html=1;labelBackgroundColor=none;fontColor=#000000;" vertex="1" parent="X4Lkt7KPIypQwsBZhQ1o-8">
                    <mxGeometry y="30" width="100" height="30" as="geometry"/>
                </mxCell>
                <mxCell id="X4Lkt7KPIypQwsBZhQ1o-10" value="clientSecret" style="text;strokeColor=none;fillColor=none;align=left;verticalAlign=middle;spacingLeft=4;spacingRight=4;overflow=hidden;points=[[0,0.5],[1,0.5]];portConstraint=eastwest;rotatable=0;whiteSpace=wrap;html=1;labelBackgroundColor=none;fontColor=#000000;" vertex="1" parent="X4Lkt7KPIypQwsBZhQ1o-8">
                    <mxGeometry y="60" width="100" height="30" as="geometry"/>
                </mxCell>
                <mxCell id="X4Lkt7KPIypQwsBZhQ1o-15" value="zoomFirma" style="text;strokeColor=none;fillColor=none;align=left;verticalAlign=middle;spacingLeft=4;spacingRight=4;overflow=hidden;points=[[0,0.5],[1,0.5]];portConstraint=eastwest;rotatable=0;whiteSpace=wrap;html=1;labelBackgroundColor=none;fontColor=#000000;" vertex="1" parent="X4Lkt7KPIypQwsBZhQ1o-8">
                    <mxGeometry y="90" width="100" height="30" as="geometry"/>
                </mxCell>
                <mxCell id="X4Lkt7KPIypQwsBZhQ1o-11" value="accountId" style="text;strokeColor=none;fillColor=none;align=left;verticalAlign=middle;spacingLeft=4;spacingRight=4;overflow=hidden;points=[[0,0.5],[1,0.5]];portConstraint=eastwest;rotatable=0;whiteSpace=wrap;html=1;labelBackgroundColor=none;fontColor=#000000;" vertex="1" parent="X4Lkt7KPIypQwsBZhQ1o-8">
                    <mxGeometry y="120" width="100" height="30" as="geometry"/>
                </mxCell>
                <mxCell id="X4Lkt7KPIypQwsBZhQ1o-20" style="edgeStyle=none;html=1;entryX=0;entryY=0.5;entryDx=0;entryDy=0;fontColor=#000000;" edge="1" parent="1" source="biGLxUPbmxU-HZz-2Ra1-28" target="X4Lkt7KPIypQwsBZhQ1o-7">
                    <mxGeometry relative="1" as="geometry"/>
                </mxCell>
                <mxCell id="biGLxUPbmxU-HZz-2Ra1-28" value="&lt;font color=&quot;#4c9cd7&quot;&gt;Validación&lt;/font&gt;" style="sketch=0;aspect=fixed;html=1;points=[];align=center;image;fontSize=12;image=img/lib/mscae/Network_Security_Groups_Classic.svg;" vertex="1" parent="1">
                    <mxGeometry x="1210" y="770" width="37" height="50" as="geometry"/>
                </mxCell>
                <mxCell id="X4Lkt7KPIypQwsBZhQ1o-19" style="edgeStyle=none;html=1;entryX=-0.015;entryY=0.709;entryDx=0;entryDy=0;entryPerimeter=0;fontColor=#000000;" edge="1" parent="1" source="gZ7wiHZtPZ2oE74fwfMA-5" target="biGLxUPbmxU-HZz-2Ra1-28">
                    <mxGeometry relative="1" as="geometry"/>
                </mxCell>
                <mxCell id="X4Lkt7KPIypQwsBZhQ1o-23" value="&lt;b&gt;app.post('/zoomPrueba')&lt;/b&gt;" style="sketch=0;aspect=fixed;pointerEvents=1;shadow=0;dashed=0;html=1;strokeColor=none;labelPosition=center;verticalLabelPosition=bottom;verticalAlign=top;align=center;fillColor=#00188D;shape=mxgraph.mscae.enterprise.code_file;labelBackgroundColor=none;fontColor=#000000;" vertex="1" parent="1">
                    <mxGeometry x="1460.5" y="970" width="49" height="50" as="geometry"/>
                </mxCell>
                <mxCell id="biGLxUPbmxU-HZz-2Ra1-18" value="&lt;font color=&quot;#4c9cd7&quot;&gt;Validación&lt;/font&gt;" style="sketch=0;aspect=fixed;html=1;points=[];align=center;image;fontSize=12;image=img/lib/mscae/Network_Security_Groups_Classic.svg;" vertex="1" parent="1">
                    <mxGeometry x="1241" y="360" width="37" height="50" as="geometry"/>
                </mxCell>
                <mxCell id="X4Lkt7KPIypQwsBZhQ1o-25" value="" style="edgeStyle=none;html=1;fontColor=#000000;endArrow=none;" edge="1" parent="1" source="gZ7wiHZtPZ2oE74fwfMA-12">
                    <mxGeometry relative="1" as="geometry">
                        <mxPoint x="1120" y="431.4485119831446" as="sourcePoint"/>
                        <mxPoint x="1240" y="390" as="targetPoint"/>
                    </mxGeometry>
                </mxCell>
                <mxCell id="X4Lkt7KPIypQwsBZhQ1o-34" style="edgeStyle=none;html=1;fontColor=#000000;" edge="1" parent="1" source="X4Lkt7KPIypQwsBZhQ1o-28" target="biGLxUPbmxU-HZz-2Ra1-24">
                    <mxGeometry relative="1" as="geometry"/>
                </mxCell>
                <mxCell id="X4Lkt7KPIypQwsBZhQ1o-37" style="edgeStyle=none;html=1;entryX=1;entryY=0.75;entryDx=0;entryDy=0;entryPerimeter=0;fontColor=#000000;" edge="1" parent="1" source="gZ7wiHZtPZ2oE74fwfMA-9" target="biGLxUPbmxU-HZz-2Ra1-33">
                    <mxGeometry relative="1" as="geometry"/>
                </mxCell>
            </root>
        </mxGraphModel>
    </diagram>
</mxfile>